<?xml version="1.0" encoding="iso-8859-1"?>
<!-- Generator: Adobe Illustrator 19.0.0, SVG Export Plug-In . SVG Version: 6.00 Build 0)  -->
<svg version="1.1" id="Capa_1" xmlns="http://www.w3.org/2000/svg" xmlns:xlink="http://www.w3.org/1999/xlink" x="0px" y="0px"
	 viewBox="0 0 512 512" style="enable-background:new 0 0 512 512;" xml:space="preserve">
<path style="fill:#5A5A5A;" d="M418.599,151.199H93.401L109.6,70.8C117.7,29.7,153.999,0,195.7,0c22.2,0,44.101,8.699,60.3,23.699
	C272.199,8.699,294.101,0,316.3,0c41.7,0,77.999,29.7,86.1,70.8L418.599,151.199z"/>
<g>
	<path style="fill:#444444;" d="M418.599,151.199H256v-127.5C272.199,8.699,294.101,0,316.3,0c41.7,0,77.999,29.7,86.1,70.8
		L418.599,151.199z"/>
	<path style="fill:#444444;" d="M512,225c0,16.199-9.101,39.901-46.901,61.8H46.901C9.101,264.901,0,241.199,0,225
		c0-68.101,132.4-105,256-105S512,156.899,512,225z"/>
</g>
<path style="fill:#292929;" d="M512,225c0,16.199-9.101,39.901-46.901,61.8H256V120C379.6,120,512,156.899,512,225z"/>
<path style="fill:#F6A96C;" d="M421,360h-30V240h30c33.091,0,60,26.909,60,60S454.091,360,421,360z"/>
<path style="fill:#FFBD86;" d="M121,360H91c-33.091,0-60-26.909-60-60s26.909-60,60-60h30V360z"/>
<path style="fill:#FED2A4;" d="M421,215.4V345c0,63.9-36.599,121.399-90,148.7c-5.7,2.999-11.4-26.302-17.401-24.202
	C309.401,471,305.2,504.5,301,505.699c-14.399,3.9-29.399,6.301-45,6.301s-30.601-2.401-45-6.301c-3.3-0.899-6.301-34.1-9.3-34.999
	c-7.2-2.701-14.101,26.6-20.7,23c-53.401-27.301-90-84.8-90-148.7V215.4l9-4.2c2.7-1.2,70.799-31.2,156-31.2s153.3,30,156,31.199
	L421,215.4z"/>
<path style="fill:#FFBD86;" d="M421,215.4V345c0,63.9-36.599,121.399-90,148.7c-5.7,2.999-11.4-26.302-17.401-24.202
	C309.401,471,305.2,504.5,301,505.699c-14.399,3.9-29.399,6.301-45,6.301V180c85.201,0,153.3,30,156,31.199L421,215.4z"/>
<path style="fill:#5A5A5A;" d="M331,390v103.7c-9.6,5.099-19.501,9-30,11.999V420h-90v85.699c-10.499-2.999-20.4-6.899-30-11.999
	V390H331z"/>
<rect x="211" y="270" style="fill:#444444;" width="90" height="30"/>
<rect x="256" y="270" style="fill:#292929;" width="45" height="30"/>
<path style="fill:#444444;" d="M331,390v103.7c-9.6,5.099-19.501,9-30,11.999V420h-45v-30H331z"/>
<path style="fill:#5A5A5A;" d="M166,360c-41.353,0-75-33.647-75-75v-15h150v15C241,326.353,207.353,360,166,360z"/>
<path style="fill:#444444;" d="M346,360c-41.353,0-75-33.647-75-75v-15h150v15C421,326.353,387.353,360,346,360z"/>
<g>
</g>
<g>
</g>
<g>
</g>
<g>
</g>
<g>
</g>
<g>
</g>
<g>
</g>
<g>
</g>
<g>
</g>
<g>
</g>
<g>
</g>
<g>
</g>
<g>
</g>
<g>
</g>
<g>
</g>
</svg>
